PathFileType	4	(X/Y/Z)	Patient4_TMGait_0pt7_01_left_03.trc.trc
DataRate	CameraRate	NumFrames	NumMarkers	Units	OrigDataRate	OrigDataStartFrame	OrigNumFrames
83.832335329341	83.832335329341	4	33	mm	83.832335329341	1	       141
Frame#	Time	Sacral			L.Shoulder			Chest			R.Shoulder			Neck			R.ASIS			L.ASIS			R.Thigh.Superior			R.Thigh.Lateral			R.Thigh.Inferior			R.Patella			L.Thigh.Superior			L.Thigh.Lateral			L.Thigh.Inferior			L.Patella			L.Shank.Superior			L.Shank.Lateral			L.Shank.Inferior			R.Shank.Superior			R.Shank.Lateral			R.Shank.Inferior			R.Heel			R.Midfoot.Superior			R.Midfoot.Lateral			R.Toe			L.Heel			L.Midfoot.Lateral			L.Midfoot.Superior			L.Toe			L.Elbow			L.Wrist			R.Elbow			R.Wrist			
		X1	Y1	Z1	X2	Y2	Z2	X3	Y3	Z3	X4	Y4	Z4	X5	Y5	Z5	X6	Y6	Z6	X7	Y7	Z7	X8	Y8	Z8	X9	Y9	Z9	X10	Y10	Z10	X11	Y11	Z11	X12	Y12	Z12	X13	Y13	Z13	X14	Y14	Z14	X15	Y15	Z15	X16	Y16	Z16	X17	Y17	Z17	X18	Y18	Z18	X19	Y19	Z19	X20	Y20	Z20	X21	Y21	Z21	X22	Y22	Z22	X23	Y23	Z23	X24	Y24	Z24	X25	Y25	Z25	X26	Y26	Z26	X27	Y27	Z27	X28	Y28	Z28	X29	Y29	Z29	X30	Y30	Z30	X31	Y31	Z31	X32	Y32	Z32	X33	Y33	Z33	

1	3.450000000000	695.483372157620	1011.306092160937	573.641775221943	901.496366286034	1429.443974301142	389.231316447739	1001.413584473925	1352.674206769102	549.196167755506	928.356126694410	1436.669021818207	723.683844016579	912.432653946734	1490.398348019566	542.528479788200	922.590099103759	944.088975690629	690.892045541361	905.274585592531	962.039254012988	414.821868955471	959.778570082356	742.005130589307	663.561318771664	873.351202847227	634.770112561661	718.413840346247	952.200280297668	581.972754018691	640.771222423408	950.071618471740	495.355382646387	645.097069997602	990.849566567763	790.755103849133	440.672819367218	953.932794302900	665.613732443011	354.546106972594	1060.551418202497	606.149045135608	414.159283553722	1079.537566621282	518.154713233886	403.938244109918	1019.785651286519	446.408949556000	395.832027705967	883.216518195622	387.955132582780	349.232899478727	889.377112892707	256.614730767139	401.197372137360	923.746916849483	406.565526797164	650.966121646459	850.227513475248	301.319569516823	705.634266893648	898.283958851216	207.733640736066	644.609744395801	770.329354398009	42.639736288237	600.590616253612	936.220682850326	96.721763958382	652.902479224628	845.412118141258	36.618502833318	684.001248392389	1053.809206969342	44.393479786673	693.948225581998	710.455798818782	163.035460930562	442.644205038506	771.237114281401	132.027597874026	357.678653101964	874.952228646367	154.762426171259	376.753659765852	967.736053934073	58.565676450023	338.005622815221	819.533616584998	1082.646230765307	290.102980564871	907.057030022336	836.130125445675	293.988942151293	968.968257079855	1089.653948079470	841.600824113741	1192.270668108049	982.744735242631	764.781134452664	
2	3.461928571429	693.727466264379	1011.922403240883	574.862939756410	900.616342553405	1428.922671052829	389.441992616144	1000.897733377008	1352.237313915858	549.148778050518	928.935009631316	1436.977508791827	723.699858444507	912.065627081247	1490.249684741729	542.344382042135	920.970179166830	944.093428684202	691.244739468008	903.072386083396	962.160319330963	415.392366651453	955.741379933631	741.292920607599	663.498202670053	868.455193714306	634.835517839697	719.055949804944	946.237613776845	581.208385219056	641.158915550673	943.191061100905	494.808293318432	645.496100601213	989.446761727432	793.265741605500	441.526864494820	954.965947959701	667.901922787773	354.697192962512	1062.241009009295	610.324558192029	414.832004648679	1083.485028345975	523.678164536470	404.094396632287	1027.202450520534	450.675694974127	395.230476440556	894.517961957383	385.256573288987	348.570433855609	908.544453333384	254.570781919180	399.398335621573	916.536702966289	406.234610245579	651.278081819761	842.624083510343	301.307876617603	705.992434025431	890.144758478396	207.530728992213	644.745218893302	761.442764887156	42.759093187098	600.607956178347	927.476456145473	96.661651367727	652.990473494885	836.607412642776	36.632993719002	684.055386362501	1045.030957356005	44.036396349192	694.083385801522	736.500338867814	151.092317657437	441.003730674861	798.064939181967	124.125538066535	355.515356510345	899.940230761079	152.499788608408	374.231011823404	997.367237613862	62.349692907944	334.450564363157	815.230397351848	1082.501548412492	292.034854700300	885.600391008584	832.866783160414	293.061834575614	979.372099877525	1093.034485298484	841.162916560871	1205.284688963402	1007.097106748484	758.037269465798	
3	3.473857142857	692.014668425447	1012.518609977708	576.041382536991	899.773595810634	1428.404238119450	389.621941210674	1000.399795652737	1351.782831385435	549.075810084563	929.498937476973	1437.251701124011	723.668693515086	911.714939564902	1490.083161051984	542.138613220535	919.358127466348	944.069893561050	691.581909849442	900.912073649267	962.243516389742	415.935313360472	951.767235262199	740.583169184265	663.466154916159	863.611703542226	634.891299903928	719.682479666027	940.362037980285	580.444043157558	641.558396096995	936.400448942600	494.267216467476	645.899722610750	987.995788054568	795.659296091678	442.379666923467	955.932578759688	670.119843688054	354.826705831209	1063.804948582447	614.380381077598	415.513472815978	1087.278374486563	529.085070184761	404.269453626416	1034.441223165774	454.870438089938	394.691612388998	905.743728262953	382.594749000239	347.849977977237	927.478200471553	252.654834732048	397.647727701383	909.423222188910	405.910531774609	651.593487494546	835.110831998037	301.297186097194	706.346460603876	882.100228517177	207.330855397751	644.883534134973	752.662090920240	42.875762610063	600.634460168034	918.829076379123	96.605670240854	653.084384687221	827.899402997180	36.645657396758	684.111270108727	1036.346782772287	43.687882560792	694.216346070594	762.283497115893	139.476858686867	439.243624382888	824.707033546741	116.490616820587	353.341822750344	924.673392490243	150.419780262140	371.825283337227	1026.680097904571	66.283922879354	331.219647354143	810.898409870655	1082.412412661510	293.874248467360	864.570010294187	829.920173231916	292.160069770100	989.644955229041	1096.424342394275	840.683959438941	1217.795338537536	1031.174870507079	751.429867460160	
4	3.485785714286	690.387952216337	1013.074457318365	577.122331648812	898.995938739363	1427.892671957819	389.731048928319	999.931256287872	1351.298197574362	548.942338433000	930.028589699005	1437.465102043980	723.534910100143	911.397322581404	1489.887272838311	541.903598744788	917.762521964165	943.997737616913	691.881476715083	898.843292179895	962.251711910860	416.415696771404	947.888746432956	739.873093140391	663.489284518658	858.831446200488	634.932148576944	720.272142667965	934.609771212530	579.676549377806	641.975757525622	929.734562753367	493.734395476059	646.308460382366	986.463819497162	797.817942720423	443.223699665158	956.760877071654	672.180254694062	354.911882384470	1065.114403956400	618.169101036769	416.201367398707	1090.752628648526	534.247325008776	404.484789724433	1041.328987139136	458.913152311329	394.268023367717	916.840617026636	379.987581302893	347.019069328519	945.993459954331	250.983531867687	395.993266071632	902.437580623501	405.598662943555	651.911199513837	827.710176994591	301.292842516641	706.688128583964	874.174814294517	207.138638063661	645.025383996774	744.016935568785	42.988707956091	600.677613618893	910.300801629100	96.556552338894	653.187233953165	819.310321303524	36.657072120491	684.170280246832	1027.777133520709	43.355571814054	694.345905582933	787.637930295258	128.475970030938	437.270174079598	851.054414172292	109.372138959928	351.161926574345	948.961705657596	148.704259477578	369.644907113991	1055.420071527688	70.550091123488	328.605925948168	806.482355970565	1082.451997453629	295.514337032951	844.337337969487	827.578894086354	291.306389645652	999.684197629985	1099.861147317977	840.112968071946	1229.333365951587	1054.773598568637	745.071411853502	
